<svg width="18" height="14" viewBox="0 0 18 14" fill="none" xmlns="http://www.w3.org/2000/svg">
<path d="M1.598 12.7932C0.558241 11.6733 0 10.4173 0 8.38137C0 4.79871 2.48029 1.58763 6.08715 0L6.98862 1.41054C3.62201 3.25715 2.96383 5.65343 2.70136 7.16429C3.24345 6.87972 3.95312 6.78043 4.64865 6.84595C6.46974 7.01689 7.90522 8.53287 7.90522 10.4173C7.90522 11.3675 7.53298 12.2788 6.87038 12.9507C6.20778 13.6225 5.3091 14 4.37205 14C3.85384 13.9954 3.34171 13.8863 2.86546 13.6792C2.38922 13.472 1.95837 13.1708 1.598 12.7932ZM11.6928 12.7932C10.653 11.6733 10.0948 10.4173 10.0948 8.38137C10.0948 4.79871 12.5751 1.58763 16.1819 0L17.0834 1.41054C13.7168 3.25715 13.0586 5.65343 12.7961 7.16429C13.3382 6.87972 14.0479 6.78043 14.7434 6.84595C16.5645 7.01689 18 8.53287 18 10.4173C18 11.3675 17.6278 12.2788 16.9652 12.9507C16.3026 13.6225 15.4039 14 14.4668 14C13.9486 13.9954 13.4365 13.8863 12.9602 13.6792C12.484 13.472 12.0532 13.1708 11.6928 12.7932Z" fill="#0D5EF4"/>
</svg>
