<svg width="155" height="40" viewBox="0 0 155 40" fill="none" xmlns="http://www.w3.org/2000/svg">
<path d="M50.9882 26.1889H63.2073L62.4477 22.7698H51.7148L50.9882 26.1889ZM57.0317 15.1792L60.6974 24.0691L60.7965 25.0606L63.9338 32.3434H68.3261L57.0317 7.07581L45.7373 32.3434H50.1296L53.333 24.8555L53.399 23.9665L57.0317 15.1792Z" fill="white"/>
<path d="M72.8887 20.3764C72.8887 18.6668 73.2519 17.1851 73.9785 15.9314C74.727 14.655 75.6957 13.6748 76.8846 12.991C78.0955 12.2843 79.4055 11.931 80.8146 11.931C81.9154 11.931 82.9061 12.0792 83.7868 12.3755C84.6674 12.6718 85.46 13.0821 86.1645 13.6064C86.8911 14.1079 87.5185 14.6778 88.0469 15.316V10.5292C87.0782 9.70856 86.0324 9.08172 84.9096 8.64862C83.7868 8.21553 82.3777 7.99898 80.6825 7.99898C78.9872 7.99898 77.402 8.29531 75.9269 8.88796C74.4738 9.48062 73.2079 10.3354 72.1291 11.4523C71.0503 12.5693 70.2027 13.8913 69.5862 15.4186C68.9918 16.923 68.6945 18.5756 68.6945 20.3764C68.6945 22.1771 68.9918 23.8411 69.5862 25.3683C70.2027 26.8728 71.0503 28.1835 72.1291 29.3004C73.2079 30.4173 74.4738 31.2721 75.9269 31.8648C77.402 32.4574 78.9872 32.7537 80.6825 32.7537C82.3777 32.7537 83.7868 32.5372 84.9096 32.1041C86.0324 31.671 87.0782 31.0442 88.0469 30.2236V25.4367C87.5185 26.075 86.8911 26.6562 86.1645 27.1805C85.46 27.682 84.6674 28.0809 83.7868 28.3772C82.9061 28.6735 81.9154 28.8217 80.8146 28.8217C79.4055 28.8217 78.0955 28.4798 76.8846 27.796C75.6957 27.0893 74.727 26.0978 73.9785 24.8213C73.2519 23.5448 72.8887 22.0632 72.8887 20.3764Z" fill="white"/>
<path d="M95.1392 26.1889H107.358L106.599 22.7698H95.8658L95.1392 26.1889ZM101.183 15.1792L104.848 24.0691L104.948 25.0606L108.085 32.3434H112.477L101.183 7.07581L89.8883 32.3434H94.2806L97.484 24.8555L97.55 23.9665L101.183 15.1792Z" fill="white"/>
<path d="M115.166 8.40928V32.3434H119.129V8.40928H115.166ZM122.63 32.3434C124.986 32.3434 127.055 31.8534 128.838 30.8732C130.622 29.8703 132.009 28.4798 133 26.7018C134.012 24.9011 134.519 22.7926 134.519 20.3764C134.519 17.9602 134.012 15.8631 133 14.0851C132.009 12.2843 130.622 10.8939 128.838 9.91371C127.055 8.91076 124.986 8.40928 122.63 8.40928H117.577V12.2046H122.531C123.676 12.2046 124.732 12.3755 125.701 12.7174C126.67 13.0593 127.506 13.5722 128.211 14.2561C128.938 14.9399 129.499 15.7947 129.895 16.8204C130.314 17.8462 130.523 19.0315 130.523 20.3764C130.523 21.7212 130.314 22.9065 129.895 23.9323C129.499 24.958 128.938 25.8128 128.211 26.4967C127.506 27.1805 126.67 27.6934 125.701 28.0353C124.732 28.3772 123.676 28.5482 122.531 28.5482H117.577V32.3434H122.63Z" fill="white"/>
<path d="M138.157 8.40928V24.4794C138.157 25.8014 138.355 26.9868 138.752 28.0353C139.148 29.061 139.72 29.9386 140.469 30.6681C141.239 31.3975 142.142 31.9559 143.177 32.3434C144.212 32.731 145.345 32.9247 146.578 32.9247C147.811 32.9247 148.945 32.731 149.98 32.3434C151.015 31.9559 151.906 31.3975 152.655 30.6681C153.403 29.9386 153.976 29.061 154.372 28.0353C154.79 26.9868 155 25.8014 155 24.4794V8.40928H151.103V24.3084C151.103 25.79 150.717 26.9868 149.947 27.8985C149.176 28.7875 148.053 29.232 146.578 29.232C145.081 29.232 143.947 28.7875 143.177 27.8985C142.428 26.9868 142.054 25.79 142.054 24.3084V8.40928H138.157Z" fill="white"/>
<path fill-rule="evenodd" clip-rule="evenodd" d="M32.6093 18.7581V33.531L28.4073 33.2334C26.9159 33.1282 25.2462 33.5089 23.6582 34.1816C21.8946 34.9291 20.2508 36.0269 19.0697 37.2146L16.3046 39.9997L13.5396 37.2146C12.3598 36.0255 10.716 34.9278 8.95109 34.1816C7.36308 33.5089 5.69343 33.1282 4.20203 33.2334L0 33.531V18.7581H1.65604V31.7287L4.09181 31.5557C5.84855 31.4311 7.77675 31.863 9.58384 32.6285C11.5393 33.4563 13.3736 34.6855 14.7017 36.0241L16.3033 37.6368L17.9076 36.0255C19.2357 34.6869 21.07 33.4591 23.0254 32.6299C24.8325 31.8644 26.7607 31.4325 28.5175 31.5571L30.9532 31.7301V18.7594H32.6093V18.7581Z" fill="#0D5EF4"/>
<path fill-rule="evenodd" clip-rule="evenodd" d="M17.1332 32.5567V34.7383C18.2504 33.707 22.994 29.6857 28.6234 30.0844L29.5066 30.1467V12.1483L28.7337 12.093C23.6648 11.7344 19.2805 14.5487 17.1345 16.2416V18.4233V32.5567H17.1332ZM27.3375 26.3233C25.393 26.4022 23.5805 26.9269 21.9993 27.6148C20.9011 28.0924 19.9159 28.6503 19.0763 29.1943V28.2059C19.8465 27.7311 20.7201 27.2577 21.6754 26.841C23.3464 26.1129 25.2705 25.5592 27.3375 25.4803V26.3233ZM27.3375 21.6569C25.393 21.7358 23.5805 22.2605 21.9993 22.9485C20.9011 23.426 19.9159 23.9839 19.0763 24.5279V23.5395C19.8465 23.0647 20.7201 22.5913 21.6754 22.1746C23.3464 21.4465 25.2705 20.8928 27.3375 20.8139V21.6569ZM27.3375 16.9905C25.393 17.0694 23.5805 17.5941 21.9993 18.2821C20.9011 18.7596 19.9159 19.3175 19.0763 19.8615V18.8732C19.8465 18.3983 20.7201 17.9249 21.6754 17.5083C23.3464 16.7801 25.2705 16.2264 27.3375 16.1475V16.9905ZM13.4224 29.1223C12.6073 28.6018 11.6616 28.0717 10.6124 27.6148C9.00126 26.913 7.14791 26.3815 5.1612 26.3192V25.4775C7.27174 25.5398 9.23395 26.1004 10.9349 26.841C11.8439 27.2369 12.6794 27.6854 13.4224 28.1367V29.1223ZM13.4224 24.4559C12.6073 23.9354 11.6616 23.4053 10.6124 22.9485C9.00126 22.2466 7.14791 21.7151 5.1612 21.6528V20.8111C7.27174 20.8734 9.23395 21.4341 10.9349 22.1746C11.8439 22.5705 12.6794 23.0191 13.4224 23.4703V24.4559ZM13.4224 19.7895C12.6073 19.2691 11.6616 18.7389 10.6124 18.2821C9.00126 17.5802 7.14791 17.0487 5.1612 16.9864V16.1447C7.27174 16.207 9.23395 16.7677 10.9349 17.5083C11.8439 17.9042 12.6794 18.3527 13.4224 18.8039V19.7895ZM15.4785 18.4246V16.243C13.3312 14.5501 8.94819 11.7344 3.87936 12.0944L3.10645 12.1497V30.1481L3.98958 30.0858C9.61769 29.6871 14.3613 33.7084 15.4798 34.7397V32.5581V18.4246H15.4785Z" fill="#0D5EF4"/>
<path fill-rule="evenodd" clip-rule="evenodd" d="M25.4683 10.6312V8.10631L31.1781 5.63538L16.3063 0L1.43457 5.63538L7.14433 8.10631V10.6312C9.6386 11.0133 12.0363 11.9698 14.2244 13.278C14.8993 13.6822 15.6137 14.1528 16.305 14.6636C16.9962 14.1528 17.7106 13.6808 18.3869 13.278C20.5764 11.9698 22.9741 11.0133 25.4683 10.6312Z" fill="#F20F10"/>
</svg>
