<svg width="765" height="606" viewBox="0 0 765 606" fill="none" xmlns="http://www.w3.org/2000/svg">
<path d="M68.5811 237.093C66.4113 226.792 65.3266 216.022 65.5002 205.018C66.6285 131.222 122.998 72.41 191.345 73.6275C212.566 74.0021 232.44 80.1362 249.711 90.5781C266.549 37.104 313.892 -0.964707 369.004 0.0186174C408.016 0.720992 442.472 20.8089 464.69 51.6197C485.736 34.9969 511.773 25.3509 539.893 25.866C608.283 27.0834 662.787 87.9091 661.659 161.658C661.659 162.127 661.616 162.642 661.616 163.11C721.11 173.786 766.024 230.07 764.982 297.123C763.897 368.953 710.435 426.594 644.518 428.467C645.213 434.554 645.516 440.782 645.429 447.104C644.301 520.9 587.931 579.712 519.584 578.494C479.965 577.792 444.988 557.049 422.814 525.395C403.503 573.578 358.719 606.917 307.08 605.981C239.514 604.763 185.487 545.342 185.313 472.764C166.61 484.329 144.869 490.791 121.783 490.37C53.3929 489.152 -1.11106 428.327 0.0172054 354.577C0.754919 302.929 28.5276 258.633 68.5811 237.093Z" fill="#F9F6EF"/>
</svg>
