<svg width="51" height="39" viewBox="0 0 51 39" fill="none" xmlns="http://www.w3.org/2000/svg">
<path opacity="0.1" d="M38.9626 0.986328C41.8253 0.985929 44.5736 2.12839 46.6147 4.16736C48.6558 6.20633 49.8263 8.97846 49.8737 11.886C50.1543 14.6252 50.1137 18.6658 48.29 23.3303C46.4258 28.0993 42.7908 33.299 36.1569 38.353C35.8294 38.6025 35.4567 38.784 35.0601 38.8873C34.6635 38.9905 34.2508 39.0133 33.8455 38.9545C33.027 38.8357 32.2885 38.3915 31.7924 37.7197C31.2964 37.0478 31.0834 36.2032 31.2003 35.3718C31.3172 34.5404 31.7545 33.7902 32.4159 33.2863C37.2916 29.5718 40.0849 25.9618 41.6841 22.8047C40.1848 23.1958 38.6206 23.2584 37.0956 22.9882C35.5706 22.718 34.1196 22.1213 32.8391 21.2378C31.5586 20.3542 30.4778 19.2039 29.6686 17.8634C28.8593 16.5229 28.3402 15.0228 28.1456 13.4628C27.951 11.9028 28.0855 10.3187 28.54 8.81549C28.9945 7.31233 29.7587 5.92462 30.7818 4.74454C31.8049 3.56447 33.0635 2.61904 34.474 1.97107C35.8845 1.3231 37.4146 0.987419 38.9626 0.986328ZM10.9055 0.986328C13.7682 0.985929 16.5165 2.12839 18.5576 4.16736C20.5987 6.20633 21.7691 8.97846 21.8166 11.886C22.0972 14.6252 22.0566 18.6658 20.2329 23.3303C18.3718 28.0993 14.7337 33.299 8.09977 38.353C7.77226 38.6025 7.39957 38.784 7.00299 38.8873C6.60641 38.9905 6.1937 39.0133 5.78842 38.9545C4.96993 38.8357 4.23141 38.3915 3.73533 37.7197C3.23925 37.0478 3.02624 36.2032 3.14317 35.3718C3.2601 34.5404 3.69738 33.7902 4.35882 33.2863C9.23452 29.5718 12.0278 25.9618 13.627 22.8047C12.1276 23.1958 10.5635 23.2584 9.03848 22.9882C7.51347 22.718 6.06251 22.1213 4.78198 21.2378C3.50146 20.3542 2.42068 19.2039 1.61146 17.8634C0.802235 16.5229 0.283086 15.0228 0.0884983 13.4628C-0.10609 11.9028 0.0283385 10.3187 0.482854 8.81549C0.93737 7.31233 1.70157 5.92462 2.72468 4.74454C3.74779 3.56447 5.0064 2.61904 6.41688 1.97107C7.82737 1.3231 9.35745 0.987419 10.9055 0.986328Z" fill="#FE5D37"/>
</svg>
