<svg width="196" height="47" viewBox="0 0 196 47" fill="none" xmlns="http://www.w3.org/2000/svg">
<path d="M69.722 30.882H60.706C60.3687 31.986 60.0467 33.0747 59.74 34.148C59.464 35.2213 59.2187 36.172 59.004 37C58.6053 37.1227 58.1913 37.23 57.762 37.322C57.3327 37.414 56.8113 37.46 56.198 37.46C54.8487 37.46 53.8213 37.23 53.116 36.77C52.4413 36.2793 52.104 35.5893 52.104 34.7C52.104 34.2707 52.1653 33.8567 52.288 33.458C52.4107 33.0593 52.5487 32.5993 52.702 32.078C52.9167 31.25 53.2233 30.2227 53.622 28.996C54.0207 27.7693 54.45 26.4507 54.91 25.04C55.4007 23.5987 55.9067 22.1267 56.428 20.624C56.9493 19.1213 57.4553 17.6953 57.946 16.346C58.4367 14.966 58.8813 13.7087 59.28 12.574C59.6787 11.4393 60.016 10.5347 60.292 9.86C60.752 9.584 61.4573 9.32333 62.408 9.078C63.3893 8.83267 64.3553 8.71 65.306 8.71C66.686 8.71 67.8973 8.90933 68.94 9.308C70.0133 9.676 70.7033 10.3047 71.01 11.194C71.5927 12.8193 72.2213 14.7053 72.896 16.852C73.5707 18.9987 74.2453 21.2067 74.92 23.476C75.6253 25.7453 76.3 27.984 76.944 30.192C77.588 32.4 78.1553 34.378 78.646 36.126C78.3087 36.5247 77.8027 36.8467 77.128 37.092C76.484 37.3373 75.702 37.46 74.782 37.46C73.4633 37.46 72.528 37.23 71.976 36.77C71.4547 36.31 71.0713 35.5893 70.826 34.608L69.722 30.882ZM65.26 15.15C64.8307 16.53 64.294 18.1093 63.65 19.888C63.0367 21.636 62.454 23.43 61.902 25.27H68.48C67.9587 23.338 67.422 21.498 66.87 19.75C66.3487 17.9713 65.904 16.438 65.536 15.15H65.26Z" fill="#F20F10"/>
<path d="M104.319 12.988C104.319 13.6933 104.135 14.322 103.767 14.874C103.399 15.3953 102.97 15.8093 102.479 16.116C101.682 15.5947 100.808 15.1347 99.8574 14.736C98.9374 14.3373 97.8334 14.138 96.5454 14.138C94.0921 14.138 92.1754 14.92 90.7954 16.484C89.4154 18.0173 88.7254 20.21 88.7254 23.062C88.7254 26.006 89.4461 28.2293 90.8874 29.732C92.3594 31.204 94.3681 31.94 96.9134 31.94C98.2321 31.94 99.3514 31.7713 100.271 31.434C101.222 31.066 102.096 30.6367 102.893 30.146C103.353 30.514 103.721 30.9893 103.997 31.572C104.304 32.124 104.457 32.7527 104.457 33.458C104.457 34.0713 104.289 34.654 103.951 35.206C103.645 35.7273 103.093 36.172 102.295 36.54C101.682 36.8467 100.854 37.1227 99.8114 37.368C98.7687 37.644 97.4807 37.782 95.9474 37.782C93.8927 37.782 91.9761 37.4907 90.1974 36.908C88.4187 36.3253 86.8701 35.436 85.5514 34.24C84.2327 33.044 83.1901 31.526 82.4234 29.686C81.6874 27.8153 81.3194 25.6073 81.3194 23.062C81.3194 20.67 81.6874 18.554 82.4234 16.714C83.1901 14.874 84.2174 13.3407 85.5054 12.114C86.7934 10.8567 88.2961 9.906 90.0134 9.262C91.7307 8.618 93.5707 8.296 95.5334 8.296C98.3241 8.296 100.486 8.74067 102.019 9.63C103.553 10.5193 104.319 11.6387 104.319 12.988Z" fill="#786ACF"/>
<path d="M124.661 30.882H115.645C115.308 31.986 114.986 33.0747 114.679 34.148C114.403 35.2213 114.158 36.172 113.943 37C113.545 37.1227 113.131 37.23 112.701 37.322C112.272 37.414 111.751 37.46 111.137 37.46C109.788 37.46 108.761 37.23 108.055 36.77C107.381 36.2793 107.043 35.5893 107.043 34.7C107.043 34.2707 107.105 33.8567 107.227 33.458C107.35 33.0593 107.488 32.5993 107.641 32.078C107.856 31.25 108.163 30.2227 108.561 28.996C108.96 27.7693 109.389 26.4507 109.849 25.04C110.34 23.5987 110.846 22.1267 111.367 20.624C111.889 19.1213 112.395 17.6953 112.885 16.346C113.376 14.966 113.821 13.7087 114.219 12.574C114.618 11.4393 114.955 10.5347 115.231 9.86C115.691 9.584 116.397 9.32333 117.347 9.078C118.329 8.83267 119.295 8.71 120.245 8.71C121.625 8.71 122.837 8.90933 123.879 9.308C124.953 9.676 125.643 10.3047 125.949 11.194C126.532 12.8193 127.161 14.7053 127.835 16.852C128.51 18.9987 129.185 21.2067 129.859 23.476C130.565 25.7453 131.239 27.984 131.883 30.192C132.527 32.4 133.095 34.378 133.585 36.126C133.248 36.5247 132.742 36.8467 132.067 37.092C131.423 37.3373 130.641 37.46 129.721 37.46C128.403 37.46 127.467 37.23 126.915 36.77C126.394 36.31 126.011 35.5893 125.765 34.608L124.661 30.882ZM120.199 15.15C119.77 16.53 119.233 18.1093 118.589 19.888C117.976 21.636 117.393 23.43 116.841 25.27H123.419C122.898 23.338 122.361 21.498 121.809 19.75C121.288 17.9713 120.843 16.438 120.475 15.15H120.199Z" fill="#FEC624"/>
<path d="M155.763 23.062C155.763 20.0873 155.027 17.8793 153.555 16.438C152.114 14.966 150.228 14.23 147.897 14.23C147.345 14.23 146.824 14.2453 146.333 14.276C145.842 14.3067 145.352 14.368 144.861 14.46V31.572C145.26 31.664 145.735 31.7407 146.287 31.802C146.87 31.8327 147.422 31.848 147.943 31.848C150.335 31.848 152.236 31.1273 153.647 29.686C155.058 28.214 155.763 26.006 155.763 23.062ZM163.215 22.97C163.215 25.4233 162.847 27.57 162.111 29.41C161.375 31.25 160.332 32.7833 158.983 34.01C157.664 35.2367 156.054 36.1567 154.153 36.77C152.282 37.3833 150.197 37.69 147.897 37.69C147.376 37.69 146.778 37.6747 146.103 37.644C145.459 37.6133 144.784 37.552 144.079 37.46C143.404 37.3987 142.714 37.2913 142.009 37.138C141.304 37.0153 140.66 36.8467 140.077 36.632C138.482 36.0493 137.685 35.0067 137.685 33.504V11.608C137.685 10.9947 137.838 10.5193 138.145 10.182C138.482 9.84467 138.958 9.56867 139.571 9.354C140.828 8.95533 142.162 8.69467 143.573 8.572C144.984 8.44933 146.272 8.388 147.437 8.388C149.798 8.388 151.945 8.67933 153.877 9.262C155.809 9.84466 157.465 10.7493 158.845 11.976C160.225 13.172 161.298 14.69 162.065 16.53C162.832 18.3393 163.215 20.486 163.215 22.97Z" fill="#FE5D37"/>
<path d="M180.147 37.782C178.245 37.782 176.543 37.5213 175.041 37C173.569 36.4787 172.311 35.7427 171.269 34.792C170.226 33.8413 169.429 32.7067 168.877 31.388C168.325 30.0387 168.049 28.536 168.049 26.88V9.032C168.386 8.97067 168.861 8.894 169.475 8.802C170.119 8.71 170.763 8.664 171.407 8.664C172.787 8.664 173.768 8.894 174.351 9.354C174.964 9.814 175.271 10.7187 175.271 12.068V26.742C175.271 28.398 175.715 29.686 176.605 30.606C177.525 31.4953 178.705 31.94 180.147 31.94C181.619 31.94 182.799 31.4953 183.689 30.606C184.609 29.686 185.069 28.398 185.069 26.742V9.032C185.406 8.97067 185.881 8.894 186.495 8.802C187.139 8.71 187.783 8.664 188.427 8.664C189.807 8.664 190.788 8.894 191.371 9.354C191.984 9.814 192.291 10.7187 192.291 12.068V26.88C192.291 28.536 192.015 30.0387 191.463 31.388C190.911 32.7067 190.113 33.8413 189.071 34.792C188.028 35.7427 186.755 36.4787 185.253 37C183.75 37.5213 182.048 37.782 180.147 37.782Z" fill="#AED139"/>
<path fill-rule="evenodd" clip-rule="evenodd" d="M38.5 21.7705V38.9159L33.5389 38.5705C31.7781 38.4484 29.8068 38.8902 27.9319 39.671C25.8498 40.5385 23.9091 41.8125 22.5146 43.191L19.25 46.4234L15.9854 43.191C14.5925 41.8109 12.6518 40.5369 10.5681 39.671C8.69318 38.8902 6.72192 38.4484 4.96111 38.5705L0 38.9159V21.7705H1.9552V36.8241L4.83098 36.6233C6.90507 36.4787 9.18158 36.98 11.3151 37.8684C13.6238 38.8291 15.7894 40.2558 17.3574 41.8093L19.2484 43.681L21.1425 41.8109C22.7106 40.2574 24.8762 38.8323 27.1849 37.87C29.3184 36.9816 31.5949 36.4803 33.669 36.6249L36.5448 36.8257V21.7721H38.5V21.7705Z" fill="#0D5EF4"/>
<path fill-rule="evenodd" clip-rule="evenodd" d="M20.2286 37.7853V40.3172C21.5476 39.1203 27.1481 34.4532 33.7945 34.9159L34.8371 34.9882V14.0995L33.9246 14.0352C27.9401 13.6191 22.7637 16.8853 20.2302 18.8502V21.3821V37.7853H20.2286ZM32.2763 30.5508C29.9805 30.6424 27.8405 31.2513 25.9737 32.0498C24.6772 32.604 23.514 33.2515 22.5227 33.8829V32.7358C23.4321 32.1847 24.4635 31.6353 25.5913 31.1517C27.5642 30.3066 29.8359 29.664 32.2763 29.5724V30.5508ZM32.2763 25.1351C29.9805 25.2267 27.8405 25.8355 25.9737 26.634C24.6772 27.1883 23.514 27.8357 22.5227 28.4671V27.32C23.4321 26.769 24.4635 26.2195 25.5913 25.7359C27.5642 24.8909 29.8359 24.2482 32.2763 24.1567V25.1351ZM32.2763 19.7193C29.9805 19.8109 27.8405 20.4198 25.9737 21.2182C24.6772 21.7725 23.514 22.42 22.5227 23.0514V21.9043C23.4321 21.3532 24.4635 20.8037 25.5913 20.3202C27.5642 19.4751 29.8359 18.8325 32.2763 18.7409V19.7193ZM15.8474 33.7993C14.8851 33.1953 13.7685 32.58 12.5298 32.0498C10.6277 31.2352 8.4395 30.6183 6.0939 30.546V29.5692C8.5857 29.6415 10.9024 30.2922 12.9106 31.1517C13.9838 31.6112 14.9702 32.1317 15.8474 32.6555V33.7993V33.7993ZM15.8474 28.3836C14.8851 27.7795 13.7685 27.1642 12.5298 26.634C10.6277 25.8195 8.4395 25.2026 6.0939 25.1303V24.1535C8.5857 24.2258 10.9024 24.8764 12.9106 25.7359C13.9838 26.1954 14.9702 26.7159 15.8474 27.2397V28.3836V28.3836ZM15.8474 22.9678C14.8851 22.3637 13.7685 21.7484 12.5298 21.2182C10.6277 20.4037 8.4395 19.7868 6.0939 19.7145V18.7377C8.5857 18.81 10.9024 19.4607 12.9106 20.3202C13.9838 20.7796 14.9702 21.3002 15.8474 21.8239V22.9678V22.9678ZM18.275 21.3837V18.8518C15.7398 16.8869 10.565 13.6191 4.5805 14.0368L3.66797 14.1011V34.9898L4.71064 34.9175C11.3554 34.4548 16.956 39.1219 18.2766 40.3188V37.7869V21.3837H18.275Z" fill="#0D5EF4"/>
<path fill-rule="evenodd" clip-rule="evenodd" d="M30.0687 12.3385V9.40811L36.8099 6.54037L19.2516 0L1.69336 6.54037L8.43456 9.40811V12.3385C11.3794 12.7819 14.2102 13.8921 16.7936 15.4103C17.5904 15.8794 18.4339 16.4256 19.25 17.0185C20.0662 16.4256 20.9096 15.8778 21.7081 15.4103C24.2931 13.8921 27.1239 12.7819 30.0687 12.3385Z" fill="#F20F10"/>
</svg>
